<svg width="5130" height="889" viewBox="0 0 5130 889" fill="none" xmlns="http://www.w3.org/2000/svg">
<path d="M25.1296 875.771C11.8853 847.613 2.7213 812.367 0.586102 781.367C-5.17486 697.749 31.8382 633.526 98.1809 612.022C223.16 596.314 118.566 611.795 71.8868 535.207C44.7252 482.354 53.0104 413.472 93.9523 351.738C122.624 308.508 172.589 260.661 205.901 244.54C209.722 242.691 215.801 239.694 219.409 237.879C228.487 233.314 247.524 227.083 259.638 224.71C273.051 222.083 297.584 222.096 310.144 224.734C324.568 227.766 339.927 235.767 348.285 244.603C354.444 251.115 355.151 252.471 355.151 257.763C355.151 262.863 354.515 264.22 350.45 267.79C347.864 270.059 340.865 274.356 334.896 277.336C290.837 299.331 259.513 335.986 248.465 378.472C242.174 402.662 242.551 434.611 249.436 460.898C267.366 529.351 332.184 588.45 412.073 609.18C431.106 614.121 432.712 614.151 437.214 609.65C441.466 605.39 442.088 602.253 439.702 597.01C438.028 593.352 435.212 592.015 422.658 588.939C417.931 587.78 409.958 585.612 404.937 584.121L395.81 581.412L402.946 577.352C406.871 575.119 413.848 569.462 418.451 564.782L426.82 556.272L437.1 566.71C448.93 578.707 456.677 591.007 461.936 606.124C465.306 615.801 465.622 618.372 465.656 635.909C465.679 652.739 465.306 656.164 462.592 663.708C452.198 692.585 429.195 711.736 400.515 715.373C382.97 717.597 366.654 714.832 318.748 701.513C238.772 679.279 178.355 690.989 134.016 737.319C118.011 754.042 111.432 763.426 71.474 826.529C61.5614 842.182 48.4697 862.622 42.3819 871.951L31.3113 888.912L25.1296 875.771Z" fill="#99C9FF"/>
<path d="M354.65 561.14C316.433 537.658 286.048 501.456 273.853 464.873C266.069 441.523 263.951 412.306 268.451 390.353C275.068 358.075 296.263 328.012 326.69 307.746L338.603 299.811L344.561 303.248C374.885 320.736 397.711 352.904 408.726 393.664C419.21 432.469 423.7 497.682 417.514 521.173C413.929 534.765 409.235 543.112 400.606 551.276C391.751 559.651 381.236 564.572 370.56 565.339C363.047 565.878 361.845 565.56 354.65 561.14Z" fill="#99C9FF"/>
<path d="M441.863 538.8C438.946 537.922 436.684 536.628 436.831 535.923C436.978 535.218 438.177 530.472 439.477 525.376C441.434 517.754 441.852 510.824 441.796 486.326C441.626 414.591 427.749 360.615 400.064 324.037C396.479 319.299 393.542 314.605 393.542 313.608C393.542 311.548 401.828 300.31 406.002 296.706C407.517 295.393 414.427 290.959 421.337 286.85C428.258 282.741 436.435 277.674 439.511 275.591L445.098 271.801L449.226 277.466C456.565 287.523 470.442 311.745 475.644 323.569C485.483 345.939 493.796 376.778 498.263 407.562C500.57 423.447 500.581 463.985 498.285 479.045C494.553 503.484 487.564 519.462 475.984 530.05C465.545 539.587 454.157 542.507 441.863 538.8Z" fill="#1E7CE4"/>
<path d="M368.81 292.766L361.951 287.525L366.441 283.582C368.911 281.414 372.523 276.385 374.469 272.409C377.54 266.132 377.922 264.005 377.368 256.283C376.606 245.673 373.181 238.315 364.867 229.426C338.989 201.76 287.147 192.648 238.205 207.162C233.221 208.64 228.905 209.611 228.614 209.32C227.423 208.13 242.156 188.488 251.009 179.464C280.769 149.125 318.803 133.875 359.625 135.913C377.393 136.799 386.67 139.109 401.375 146.307C420.85 155.844 435.688 173.99 439.646 193.115C442.032 204.593 443.027 234.791 441.241 241.339C439.126 249.116 434.907 252.803 414.189 264.997C397.994 274.533 383.435 286.539 377.57 295.202C375.68 297.993 375.636 297.981 368.81 292.766Z" fill="#1E7CE4"/>
<path d="M152.434 181.72C146.7 175.311 140 163.263 136.559 153.175C131.797 139.207 131.501 118.799 135.838 103.385C147.613 61.5348 184.315 27.1521 236.975 8.63977C262.382 -0.292246 292.85 -2.52598 313.834 3.00469C485.584 61.4182 228.832 264.052 152.434 181.72Z" fill="#1E7CE4"/>
<path d="M1222.01 278.664H1048.82V724H985.203V278.664H812.017V222.113H1222.01V278.664ZM1368.99 731.069C1341.19 731.069 1315.74 726.121 1292.65 716.224C1269.56 705.857 1249.76 691.955 1233.27 674.518C1216.78 657.082 1203.82 636.818 1194.39 613.726C1185.44 590.163 1180.96 565.423 1180.96 539.504C1180.96 513.585 1185.44 489.079 1194.39 465.988C1203.82 442.896 1216.78 422.632 1233.27 405.196C1250.23 387.759 1270.26 374.093 1293.35 364.197C1316.45 353.829 1341.89 348.645 1369.7 348.645C1397.5 348.645 1422.71 353.829 1445.33 364.197C1468.43 374.564 1487.98 388.466 1504.01 405.903C1520.03 422.868 1532.28 442.896 1540.76 465.988C1549.72 488.608 1554.19 512.171 1554.19 536.676C1554.19 541.86 1553.96 546.572 1553.49 550.814C1553.49 555.055 1553.25 558.354 1552.78 560.71H1246.7C1248.11 579.089 1252.36 595.819 1259.42 610.899C1266.49 625.979 1275.68 638.938 1286.99 649.777C1298.3 660.616 1311.03 669.099 1325.16 675.225C1339.77 681.351 1355.09 684.415 1371.11 684.415C1382.42 684.415 1393.5 683.001 1404.34 680.173C1415.17 676.874 1425.31 672.633 1434.73 667.449C1444.16 662.266 1452.4 655.904 1459.47 648.364C1467.01 640.823 1472.67 632.341 1476.44 622.916L1530.16 637.76C1524.03 651.427 1515.55 663.915 1504.71 675.225C1494.34 686.535 1482.09 696.432 1467.95 704.914C1454.29 712.926 1438.97 719.287 1422.01 724C1405.04 728.713 1387.37 731.069 1368.99 731.069ZM1495.52 514.763C1494.11 497.326 1489.63 481.304 1482.09 466.695C1475.02 451.614 1465.83 438.891 1454.52 428.523C1443.69 418.155 1430.96 410.144 1416.35 404.489C1401.74 398.363 1386.19 395.299 1369.7 395.299C1353.2 395.299 1337.65 398.363 1323.04 404.489C1308.43 410.144 1295.48 418.391 1284.17 429.23C1273.33 439.597 1264.37 452.086 1257.3 466.695C1250.71 481.304 1246.7 497.326 1245.29 514.763H1495.52ZM1598.6 538.797C1598.6 512.878 1603.08 488.372 1612.03 465.281C1620.99 442.189 1633.71 422.161 1650.2 405.196C1666.7 387.759 1686.25 374.093 1708.87 364.197C1731.97 353.829 1757.65 348.645 1785.92 348.645C1822.68 348.645 1854.26 356.892 1880.65 373.386C1907.51 389.409 1927.77 411.086 1941.44 438.419L1880.65 457.505C1871.22 440.069 1858.03 426.638 1841.06 417.213C1824.1 407.316 1805.25 402.368 1784.51 402.368C1767.55 402.368 1751.52 405.903 1736.44 412.971C1721.36 419.569 1708.4 428.994 1697.56 441.247C1686.73 453.499 1678.01 467.873 1671.41 484.367C1665.28 500.861 1662.22 519.004 1662.22 538.797C1662.22 558.118 1665.52 576.261 1672.12 593.227C1678.71 610.192 1687.43 625.036 1698.27 637.76C1709.58 650.013 1722.54 659.674 1737.15 666.742C1752.23 673.811 1768.25 677.346 1785.22 677.346C1796.06 677.346 1806.66 675.932 1817.03 673.104C1827.87 669.806 1837.53 665.564 1846.01 660.381C1854.96 655.197 1862.74 649.306 1869.34 642.708C1875.93 635.64 1880.65 628.1 1883.47 620.088L1944.27 638.467C1938.61 652.134 1930.6 664.622 1920.23 675.932C1910.34 687.242 1898.55 696.903 1884.89 704.914C1871.22 712.926 1855.91 719.287 1838.94 724C1822.45 728.713 1805.01 731.069 1786.63 731.069C1758.83 731.069 1733.38 725.885 1710.29 715.517C1687.2 705.15 1667.4 691.248 1650.91 673.811C1634.42 656.375 1621.46 636.111 1612.03 613.019C1603.08 589.457 1598.6 564.716 1598.6 538.797ZM2334.97 724H2272.76V517.59C2272.76 479.418 2266.17 451.143 2252.97 432.764C2239.78 413.914 2220.45 404.489 2195.01 404.489C2182.75 404.489 2170.5 407.081 2158.25 412.265C2146 416.977 2134.45 423.575 2123.61 432.057C2113.24 440.54 2103.82 450.672 2095.34 462.453C2087.32 474.235 2081.2 487.194 2076.96 501.332V724H2014.75V207.975H2076.96V434.178C2091.57 407.316 2111.36 386.346 2136.33 371.265C2161.31 356.185 2188.64 348.645 2218.33 348.645C2240.01 348.645 2258.39 352.651 2273.47 360.662C2288.55 368.674 2300.57 379.512 2309.52 393.179C2318.47 406.845 2324.84 423.339 2328.61 442.661C2332.85 461.511 2334.97 481.775 2334.97 503.453V724ZM2915.16 327.439C2909.5 320.841 2901.96 314.479 2892.54 308.353C2883.11 302.227 2872.51 296.807 2860.73 292.095C2848.95 286.911 2835.99 282.905 2821.85 280.078C2808.18 276.779 2793.81 275.129 2778.73 275.129C2739.62 275.129 2710.87 282.434 2692.49 297.043C2674.58 311.652 2665.63 331.68 2665.63 357.128C2665.63 370.794 2668.22 382.104 2673.41 391.058C2678.59 400.012 2686.6 407.788 2697.44 414.385C2708.75 420.512 2722.65 425.931 2739.15 430.644C2755.64 435.356 2775.2 440.304 2797.82 445.488C2823.74 451.143 2847.06 457.741 2867.8 465.281C2889 472.35 2906.91 481.304 2921.52 492.142C2936.6 502.981 2947.91 516.176 2955.45 531.728C2963.46 547.279 2967.47 566.365 2967.47 588.985C2967.47 613.019 2962.76 633.99 2953.33 651.898C2943.91 669.334 2930.95 683.943 2914.45 695.725C2898.43 707.035 2879.34 715.517 2857.2 721.172C2835.05 726.356 2811.01 728.948 2785.09 728.948C2746.45 728.948 2709.69 723.057 2674.82 711.276C2640.42 699.023 2609.08 681.351 2580.8 658.26L2611.2 604.537C2618.74 612.548 2628.4 620.559 2640.18 628.571C2652.43 636.582 2666.1 643.887 2681.18 650.484C2696.73 656.61 2713.23 661.794 2730.66 666.036C2748.57 669.806 2767.19 671.691 2786.51 671.691C2822.32 671.691 2850.13 665.329 2869.92 652.605C2889.71 639.881 2899.61 620.795 2899.61 595.347C2899.61 581.21 2896.31 569.428 2889.71 560.003C2883.59 550.107 2874.4 541.624 2862.14 534.555C2849.89 527.487 2834.57 521.36 2816.2 516.176C2798.29 510.521 2777.79 504.866 2754.7 499.211C2729.25 493.085 2706.86 486.487 2687.54 479.418C2668.22 472.35 2651.96 463.867 2638.77 453.971C2626.04 444.074 2616.38 432.057 2609.79 417.92C2603.19 403.782 2599.89 386.817 2599.89 367.024C2599.89 342.99 2604.37 321.784 2613.32 303.405C2622.27 285.026 2634.76 269.474 2650.79 256.75C2666.81 244.026 2685.89 234.601 2708.04 228.475C2730.19 221.877 2754.23 218.579 2780.14 218.579C2814.08 218.579 2844.71 223.762 2872.04 234.13C2899.37 244.498 2923.64 258.4 2944.85 275.836L2915.16 327.439ZM3041.25 724V355.007H3103.46V724H3041.25ZM3041.25 285.733V207.975H3103.46V285.733H3041.25ZM3333.52 731.069C3303.83 731.069 3274.62 726.592 3245.87 717.638C3217.12 708.213 3192.38 694.782 3171.65 677.346L3198.51 635.64C3220.19 652.134 3241.86 664.622 3263.54 673.104C3285.22 681.116 3308.08 685.121 3332.11 685.121C3358.97 685.121 3380.18 679.938 3395.73 669.57C3411.75 658.731 3419.76 643.651 3419.76 624.33C3419.76 615.376 3417.64 607.836 3413.4 601.709C3409.16 595.112 3402.8 589.457 3394.32 584.744C3385.83 580.031 3374.99 575.79 3361.8 572.02C3348.6 568.25 3333.29 564.244 3315.85 560.003C3293.7 554.348 3274.62 548.929 3258.59 543.745C3242.57 538.561 3229.38 532.435 3219.01 525.366C3208.64 518.297 3201.1 509.814 3196.39 499.918C3191.68 490.022 3189.32 477.769 3189.32 463.16C3189.32 444.781 3192.85 428.523 3199.92 414.385C3207.46 399.776 3217.59 387.759 3230.32 378.334C3243.04 368.438 3257.89 361.133 3274.85 356.421C3292.29 351.237 3310.9 348.645 3330.7 348.645C3358.5 348.645 3384.42 353.122 3408.45 362.076C3432.49 371.03 3452.75 382.811 3469.25 397.42L3440.97 434.885C3425.42 421.218 3407.98 411.086 3388.66 404.489C3369.34 397.42 3349.55 393.886 3329.28 393.886C3306.66 393.886 3287.34 398.834 3271.32 408.73C3255.77 418.155 3247.99 433.471 3247.99 454.678C3247.99 463.16 3249.4 470.229 3252.23 475.884C3255.53 481.539 3260.71 486.487 3267.78 490.729C3274.85 494.97 3283.81 498.74 3294.65 502.039C3305.96 505.338 3319.39 508.872 3334.94 512.642C3359.44 518.297 3380.65 524.188 3398.56 530.314C3416.94 535.969 3432.02 542.802 3443.8 550.814C3456.05 558.825 3465 568.25 3470.66 579.089C3476.79 589.928 3479.85 603.123 3479.85 618.674C3479.85 653.076 3466.65 680.409 3440.26 700.673C3413.87 720.937 3378.29 731.069 3333.52 731.069ZM3744.32 705.621C3740.55 707.506 3735.6 709.862 3729.48 712.69C3723.35 715.046 3716.28 717.638 3708.27 720.466C3700.73 722.822 3692.25 724.707 3682.82 726.121C3673.87 728.006 3664.44 728.948 3654.55 728.948C3631.93 728.948 3612.37 722.822 3595.88 710.569C3579.38 697.845 3571.14 678.288 3571.14 651.898V403.782H3520.95V355.007H3571.14V232.009H3633.34V355.007H3716.05V403.782H3633.34V632.812C3634.28 646.479 3638.76 656.375 3646.77 662.501C3654.78 668.628 3664.21 671.691 3675.05 671.691C3687.3 671.691 3698.37 669.806 3708.27 666.036C3718.64 661.794 3725.71 658.496 3729.48 656.139L3744.32 705.621ZM3960.43 731.069C3932.63 731.069 3907.18 726.121 3884.09 716.224C3861 705.857 3841.21 691.955 3824.71 674.518C3808.22 657.082 3795.26 636.818 3785.83 613.726C3776.88 590.163 3772.4 565.423 3772.4 539.504C3772.4 513.585 3776.88 489.079 3785.83 465.988C3795.26 442.896 3808.22 422.632 3824.71 405.196C3841.68 387.759 3861.71 374.093 3884.8 364.197C3907.89 353.829 3933.34 348.645 3961.14 348.645C3988.95 348.645 4014.16 353.829 4036.78 364.197C4059.87 374.564 4079.43 388.466 4095.45 405.903C4111.47 422.868 4123.72 442.896 4132.21 465.988C4141.16 488.608 4145.64 512.171 4145.64 536.676C4145.64 541.86 4145.4 546.572 4144.93 550.814C4144.93 555.055 4144.7 558.354 4144.22 560.71H3838.14C3839.56 579.089 3843.8 595.819 3850.87 610.899C3857.94 625.979 3867.13 638.938 3878.44 649.777C3889.75 660.616 3902.47 669.099 3916.61 675.225C3931.22 681.351 3946.53 684.415 3962.56 684.415C3973.87 684.415 3984.94 683.001 3995.78 680.173C4006.62 676.874 4016.75 672.633 4026.18 667.449C4035.6 662.266 4043.85 655.904 4050.92 648.364C4058.46 640.823 4064.11 632.341 4067.88 622.916L4121.6 637.76C4115.48 651.427 4107 663.915 4096.16 675.225C4085.79 686.535 4073.54 696.432 4059.4 704.914C4045.73 712.926 4030.42 719.287 4013.45 724C3996.49 728.713 3978.81 731.069 3960.43 731.069ZM4086.97 514.763C4085.55 497.326 4081.08 481.304 4073.54 466.695C4066.47 451.614 4057.28 438.891 4045.97 428.523C4035.13 418.155 4022.41 410.144 4007.8 404.489C3993.19 398.363 3977.64 395.299 3961.14 395.299C3944.65 395.299 3929.1 398.363 3914.49 404.489C3899.88 410.144 3886.92 418.391 3875.61 429.23C3864.77 439.597 3855.82 452.086 3848.75 466.695C3842.15 481.304 3838.14 497.326 3836.73 514.763H4086.97ZM4409.89 409.437C4378.78 410.38 4351.21 418.391 4327.18 433.471C4303.62 448.551 4286.89 469.522 4276.99 496.384V724H4214.79V355.007H4272.75V440.54C4285.47 415.092 4302.2 394.593 4322.94 379.041C4343.67 363.018 4365.82 354.065 4389.39 352.18C4394.1 352.18 4398.1 352.18 4401.4 352.18C4404.7 352.18 4407.53 352.415 4409.89 352.886V409.437ZM4600.94 731.069C4571.25 731.069 4542.04 726.592 4513.29 717.638C4484.54 708.213 4459.8 694.782 4439.07 677.346L4465.93 635.64C4487.61 652.134 4509.28 664.622 4530.96 673.104C4552.64 681.116 4575.49 685.121 4599.53 685.121C4626.39 685.121 4647.6 679.938 4663.15 669.57C4679.17 658.731 4687.18 643.651 4687.18 624.33C4687.18 615.376 4685.06 607.836 4680.82 601.709C4676.58 595.112 4670.22 589.457 4661.73 584.744C4653.25 580.031 4642.41 575.79 4629.22 572.02C4616.02 568.25 4600.71 564.244 4583.27 560.003C4561.12 554.348 4542.04 548.929 4526.01 543.745C4509.99 538.561 4496.8 532.435 4486.43 525.366C4476.06 518.297 4468.52 509.814 4463.81 499.918C4459.09 490.022 4456.74 477.769 4456.74 463.16C4456.74 444.781 4460.27 428.523 4467.34 414.385C4474.88 399.776 4485.01 387.759 4497.74 378.334C4510.46 368.438 4525.31 361.133 4542.27 356.421C4559.71 351.237 4578.32 348.645 4598.12 348.645C4625.92 348.645 4651.84 353.122 4675.87 362.076C4699.91 371.03 4720.17 382.811 4736.66 397.42L4708.39 434.885C4692.84 421.218 4675.4 411.086 4656.08 404.489C4636.76 397.42 4616.97 393.886 4596.7 393.886C4574.08 393.886 4554.76 398.834 4538.74 408.73C4523.19 418.155 4515.41 433.471 4515.41 454.678C4515.41 463.16 4516.82 470.229 4519.65 475.884C4522.95 481.539 4528.13 486.487 4535.2 490.729C4542.27 494.97 4551.23 498.74 4562.06 502.039C4573.37 505.338 4586.8 508.872 4602.36 512.642C4626.86 518.297 4648.07 524.188 4665.98 530.314C4684.35 535.969 4699.43 542.802 4711.22 550.814C4723.47 558.825 4732.42 568.25 4738.08 579.089C4744.2 589.928 4747.27 603.123 4747.27 618.674C4747.27 653.076 4734.07 680.409 4707.68 700.673C4681.29 720.937 4645.71 731.069 4600.94 731.069Z" fill="black"/>
</svg>
