<svg width="535" height="292" viewBox="0 0 535 292" fill="none" xmlns="http://www.w3.org/2000/svg">
<path d="M51 61L52.5 62.5L54 63.5L57 60L62 53L62.5 47L61 45.5L60 44.5L58 42L56 40.5L55 38.5L54 35L52.5 33.5L51 31L49.5 29L47 26.5L43.5 22.5L40.5 18L39 16.5H37.5L36.5 19L37.5 21.5L41 26.5L42.5 29L41.5 31L41 33.5H39H34.5L28 31.5L22.5 30L17 27.5L11.5 26.5H9V29L13 31.5L22.5 35L24.5 37V38.5L22 38H15.5L10 37L5.5 36.5L3 35H1L0 36V38L3 40.5L6.5 42L13.5 43.5L22.5 44.5L23.5 46.5L22 48H19.5H17L10.5 47.5L6.5 47L5 48.5L6.5 50.5L10 51L13 52L16.5 52.5L22.5 53L23.5 53.5V55L22 56H19.5H13.5H10V57.5L11.5 58.5H14.5H20.5H25.5H31H34L41 59.5L46 60H49.5L51 61Z" fill="#B27950"/>
<path d="M484 44.5L482.5 46L481 47L478 43.5L473 36.5L472.5 30.5L474 29L475 28L477 25.5L479 24L480 22L481 18.5L482.5 17L484 14.5L485.5 12.5L488 10L491.5 6L494.5 1.5L496 0H497.5L498.5 2.5L497.5 5L494 10L492.5 12.5L493.5 14.5L494 17H496H500.5L507 15L512.5 13.5L518 11L523.5 10H526V12.5L522 15L512.5 18.5L510.5 20.5V22L513 21.5H519.5L525 20.5L529.5 20L532 18.5H534L535 19.5V21.5L532 24L528.5 25.5L521.5 27L512.5 28L511.5 30L513 31.5H515.5H518L524.5 31L528.5 30.5L530 32L528.5 34L525 34.5L522 35.5L518.5 36L512.5 36.5L511.5 37V38.5L513 39.5H515.5H521.5H525V41L523.5 42H520.5H514.5H509.5H504H501L494 43L489 43.5H485.5L484 44.5Z" fill="#B27950"/>
<path d="M319.5 99L308 102.5L236.5 111.5L223 115L220 114L210 110.5L184 103L155 94L145 90.5L135 85.5L126.5 80L110.5 71L88 57.5L61.5 43.5L60 50.5L55 59L50 64L52.5 66L67.5 80L81.5 92L90 98L105.5 111.5L113.5 118.5L125 128.5L129.5 130L146 138.5L173 149.5L187.5 155.5L202.5 162.5L212 166L213 176.5L211 278.5V286L208.5 288.5L206 292H264H278.5H320.5H347.5L344.5 284.5L341.5 272.5L338.5 263.5L338 254L336.5 242L334 224.5L333 205.5L331.5 192.5L330.5 180V174L329 165.5V155L328 150L334.5 147.5L351 141L379 128.5L399.5 120L406.5 116.5L410.5 114.5L417.5 108.5L429 99L436 93L450.5 82L462 71.5L473 62.5L483.5 52.5V50.5L481.5 48L479.5 44.5L477 39.5L474.5 35.5L473 30.5H471L465.5 34L456 39.5L440 48.5L431.5 54L420 60L408 67.5L399.5 71.5L392 77L387 79L382 80.5L378 82L373.5 82.5L363 86.5L355 88.5L346 91.5L337 94L329 96.5L319.5 99Z" fill="#C1D8EC"/>
<path d="M231.5 47V56V61.5L233 74.5L236.5 88L238.5 94.5V100.5L236.5 106.5L238.5 115.5L236.5 116.5L229.5 130.5L224 142.5L218.5 157.5L216 164V171.5L214 182.5L210.5 205L208 229.5L203.5 251.5L200.5 272L205 275L218 280.5L233 285L237 277.5V272L242 270.5L250.5 268L252.5 265L253 258L257 254V241V224L256 207.5V195V178L257 146.5L259 127V115.5H264L263 118.5V130.5L265 151L268 181L271 210.5L273 229.5L274.5 254L278 256H285.5L289.5 254L291 264L298 261L313 254L324 246L337 234L333.5 225.5L328.5 212.5L324 198.5L320 187V177L317.5 166L316 157.5L314.5 144L313 133L310 121.5L307 116.5L308 113V105L307 100.5V95.5L305.5 94.5L307 93L310 88L313 81L316 73L317.5 67.5V61.5V56V47L315.5 37.5L313.5 32L308 22.5L303.5 17.5L297.5 14L292.5 12L277.5 8.5H268L254 12L247.5 15.5L241 22.5L236.5 30L233 40L231.5 47Z" fill="#4A70A4"/>
<path d="M246 43L248 35.5L251 32L255 27.5L260 24.5L266 23H273H279L285.5 25.5L291.5 29L297 33.5L300.5 38.5L304 45.5V53.5V62.5V69.5L302 77.5L299 83.5L294.5 92L291.5 98L285.5 104L281 106.5L275.5 109H269L265 107L260 104L255 100.5L252.5 96.5L248 89.5L246 85L245 78V69.5V57.5L246 48.5V43Z" fill="#B27950"/>
<path d="M230.5 212.5L233 196.5L235.957 179.5L235.5 189.5L233 212.5L230.5 231.5V244C230.5 244 233 251.5 233 257.5C233 263.5 235.957 264.5 235.957 264.5L239.5 267.5V270.5L237 272L230.5 263L228 254V238.5V225.5L230.5 212.5Z" fill="#3C5E8D"/>
<path d="M249 131L245.5 139.5L241 152.5L237 173.5L235.957 179.5M235.957 179.5L233 196.5L230.5 212.5L228 225.5V238.5V254L230.5 263L237 272L239.5 270.5V267.5L235.957 264.5C235.957 264.5 233 263.5 233 257.5C233 251.5 230.5 244 230.5 244V231.5L233 212.5L235.5 189.5L235.957 179.5ZM290 254V248V238.5L287.5 225.5L285.5 207.5L283.5 185.5L281 170.5V150.5L279.5 137L277.5 126" stroke="#3C5E8D"/>
<path d="M239 66V76L241.5 86.5L243.5 92.5L248.5 99.5M239 108L248.5 111.5H251L258 110M306 102.5L300 108L292.5 111.5L283 114.5L273.5 116L262.5 113M310 57V66L308 76L306 82.5L300 92.5L295.5 99.5" stroke="#3C5E8D"/>
</svg>
