<svg width="311" height="279" viewBox="0 0 311 279" fill="none" xmlns="http://www.w3.org/2000/svg">
<path d="M90.0569 111.825C90.0274 109.319 92.2836 107.403 94.7518 107.839L124 113L166 118H184.582C186.069 118 187.433 118.824 188.124 120.141L197.089 137.217C197.36 137.733 197.515 138.301 197.543 138.883L200 189.5V254V274V274.5C200 276.709 198.209 278.5 196 278.5H113.5L95.5867 276.834C93.548 276.644 91.9817 274.945 91.9575 272.898L90.0569 111.825Z" fill="#B56576"/>
<path d="M261.993 174.507C262.638 173.862 263 172.988 263 172.076V170.02C263 169.351 263.168 168.692 263.488 168.105L265.512 164.395C265.832 163.808 266 163.149 266 162.48V161.361C266 161.121 265.978 160.881 265.935 160.645L263.272 145.996C263.097 145.032 263.281 144.038 263.791 143.201L270 133L275.736 124.397C275.911 124.133 276.055 123.85 276.164 123.552L283.5 103.5L284.97 99.0895C285.287 98.1403 286.175 97.5 287.175 97.5C288.459 97.5 289.5 98.5407 289.5 99.8246V102.927C289.5 103.307 289.446 103.685 289.339 104.05L283.661 123.45C283.554 123.815 283.5 124.193 283.5 124.573V128.388C283.5 128.79 283.594 129.188 283.774 129.548C284.44 130.879 286.088 131.378 287.381 130.64L288.206 130.168C288.402 130.056 288.586 129.926 288.756 129.779L298.981 120.948C299.325 120.651 299.615 120.299 299.84 119.905L303.122 114.162C303.372 113.725 303.702 113.338 304.096 113.023L307.25 110.5C307.962 109.931 308.987 109.987 309.632 110.632C310.155 111.155 310.302 111.946 310.001 112.622L308.5 116L302.152 127.232C302.051 127.41 301.936 127.581 301.809 127.742L294.5 137L294.328 137.172C292.766 138.734 292.766 141.266 294.328 142.828L296 144.5L298.233 147.371C299.028 148.393 299.279 149.736 298.907 150.976L298.267 153.109C298.091 153.695 297.783 154.233 297.367 154.682L291.5 161L285 169L281.265 173.202C281.089 173.4 280.933 173.615 280.799 173.844L277.74 179.089C277.58 179.362 277.454 179.653 277.363 179.955L277.117 180.776C276.495 182.85 274.336 184.052 272.246 183.489L264.453 181.391C263.517 181.139 262.703 180.555 262.165 179.748L261.563 178.845C260.654 177.482 260.834 175.666 261.993 174.507Z" fill="#F3BC8D"/>
<path d="M9.4412 119.882C9.80506 120.61 9.93836 121.432 9.82329 122.237L9.0402 127.719C9.01343 127.906 9 128.095 9 128.284V132V132.338C9 134.789 11.1852 136.664 13.6082 136.291L21.1256 135.135C21.7016 135.046 22.2512 134.833 22.7361 134.509L24.3774 133.415C25.672 132.552 26.3487 131.016 26.1121 129.479L25.5465 125.802C25.5155 125.601 25.5 125.398 25.5 125.194V121.535C25.5 120.547 25.8658 119.594 26.5268 118.859L34.0237 110.529C34.3388 110.179 34.5895 109.776 34.7644 109.339L37.2139 103.215C37.4029 102.743 37.5 102.239 37.5 101.73V97.52C37.5 96.8507 37.3321 96.1921 37.0116 95.6046L34.8032 91.5559C34.6023 91.1876 34.4606 90.79 34.3833 90.3776L33.0928 83.495C33.0312 83.1663 33.011 82.8312 33.0328 82.4975L34.5 60V55.9271C34.5 55.3174 34.3581 54.7161 34.0854 54.1708L33.5582 53.1165C33.2161 52.4322 32.5168 52 31.7517 52C30.7466 52 29.8944 52.7391 29.7523 53.7341L29.0402 58.7186C29.0134 58.906 29 59.095 29 59.2843V73.5L28.2122 79.4083C28.076 80.4298 27.5508 81.3593 26.7461 82.0031L25.7435 82.8052C25.5814 82.9349 25.4095 83.0517 25.2293 83.1547L24.8405 83.3768C23.188 84.3211 21.099 83.9703 19.8457 82.5379L19.0773 81.6598C18.697 81.2251 18.4152 80.7132 18.2516 80.1592L12.1859 59.6293C12.0632 59.2137 11.8608 58.826 11.59 58.4876L11.196 57.995C10.4893 57.1117 9.28003 56.8086 8.24028 57.2542C7.20971 57.6958 6.59577 58.7662 6.73484 59.8787L7.5 66L10 76L11.8213 82.0709C12.4674 84.2247 11.2118 86.4877 9.04243 87.0793L8.27181 87.2895C7.76231 87.4285 7.28538 87.6669 6.86852 87.9912L4.54424 89.7989C3.56989 90.5568 3 91.722 3 92.9563V94.2157C3 94.405 3.01343 94.594 3.0402 94.7814L4.94899 108.143C4.98293 108.381 5.03817 108.615 5.11406 108.842L7.41011 115.73C7.46996 115.91 7.54248 116.085 7.62713 116.254L9.4412 119.882Z" fill="#F3BC8D"/>
<path d="M34.5405 238.444C35.479 238.802 36.5176 238.793 37.4501 238.42L45.6684 235.133C45.889 235.044 46.1013 234.937 46.3028 234.811L53.66 230.212C53.8861 230.071 54.0975 229.908 54.291 229.724L63.2278 221.258C63.4089 221.086 63.5735 220.898 63.7195 220.696L70 212L77.5 200.844L78 196V199.019C78 199.661 77.8273 200.291 77.5 200.844L70.1275 272.264C70.0445 273.069 70.2074 273.88 70.5948 274.591L71.863 276.915C72.5639 278.2 73.9108 279 75.3745 279H119.592C121.765 279 123.54 277.265 123.59 275.093L126 171L127.367 152.768C127.452 151.642 127.056 150.533 126.279 149.714L118.588 141.619C118.2 141.211 117.903 140.726 117.716 140.195L115.259 133.233C115.088 132.749 114.825 132.302 114.486 131.917L107.5 124L100.5 115L96.2011 109.529C95.4428 108.564 94.2833 108 93.0559 108H86.1303C84.7986 108 83.5543 108.663 82.8111 109.768L52.0889 155.447C50.2554 158.173 46 156.875 46 153.59C46 153.2 45.9314 152.813 45.7974 152.446L38.6247 132.841C38.5417 132.614 38.4384 132.395 38.316 132.187L35.0965 126.714C34.1599 125.122 32.2546 124.378 30.4869 124.915L5.5 132.5L2.97327 133.649C1.24286 134.435 0.30496 136.331 0.729549 138.183L5.5 159L14 183.5L17.5 202.5L22 221L24.9938 232.975C25.311 234.244 26.2283 235.277 27.4504 235.743L34.5405 238.444Z" fill="#FDDAD9"/>
<path d="M181.562 275.496C181.812 277.498 183.514 279 185.531 279H202H211C213.209 279 215 277.209 215 275V270.5V250.705C215 250.238 214.919 249.776 214.759 249.338L211 239L219.156 260.591C219.382 261.188 219.748 261.723 220.223 262.15L229.198 270.228C229.399 270.409 229.618 270.569 229.851 270.706L241.058 277.275C242.753 278.269 244.919 277.884 246.168 276.367L251 270.5L261.111 257.501C261.369 257.169 261.573 256.799 261.715 256.403L268 239L274.332 225.85C274.444 225.617 274.533 225.374 274.598 225.124L280.5 202.5L284.554 189.889C284.842 188.992 284.804 188.022 284.448 187.15L281.055 178.858C280.697 177.981 280.039 177.26 279.199 176.823L268 171L261.591 167.964C259.811 167.121 257.683 167.699 256.573 169.326L251.268 177.107C251.09 177.368 250.943 177.649 250.832 177.945L244 196L238.014 216.951C238.005 216.984 238 217.017 238 217.051C238 217.491 237.363 217.549 237.283 217.116L232 188.5L222.081 148.826C222.027 148.609 221.955 148.397 221.865 148.192L215.277 133.134C215.094 132.714 214.84 132.33 214.526 131.996L207 124L205.167 122.533C203.425 121.14 200.88 121.44 199.51 123.201L195.282 128.637C195.095 128.878 194.935 129.14 194.808 129.417L186.338 147.767C186.115 148.251 185.797 148.685 185.404 149.044L175.803 157.81C174.973 158.568 174.5 159.64 174.5 160.764V173.5L178 247L181.562 275.496Z" fill="#FDDAD9"/>
<path fill-rule="evenodd" clip-rule="evenodd" d="M94.673 110.087L90.4037 107.952C89.8325 107.666 89.1625 107.656 88.5826 107.923C86.7632 108.763 84.9122 106.823 85.8367 105.045L89.5 98L102 77.5L114.5 49.5L121.5 29L125.669 17.4206C125.886 16.8158 126.247 16.2723 126.719 15.8363L138.386 5.06719C138.791 4.69311 139.269 4.40687 139.79 4.22646L151.364 0.220056C151.785 0.0743749 152.227 0 152.673 0H161.351C161.781 0 162.208 0.0693115 162.616 0.205267L175.5 4.5L185.755 8.69529C186.247 8.89642 186.693 9.19345 187.069 9.56905L193.419 15.9194C193.802 16.3025 194.104 16.7593 194.305 17.2623L197.714 25.7848C197.903 26.2572 198 26.7615 198 27.2703V37V55.5V69.8242C198 70.2716 197.925 70.7158 197.778 71.1383L194 82L191.625 88.6505C191.542 88.883 191.437 89.1073 191.313 89.3206L188.294 94.4962C188.099 94.8303 187.857 95.1344 187.575 95.3989L180.595 101.942C181.645 101.109 183.054 100.851 184.345 101.282L187.284 102.261C187.757 102.419 188.197 102.664 188.58 102.983L193.618 107.182C193.872 107.393 194.098 107.635 194.292 107.902L197.83 112.766C197.943 112.922 198.045 113.086 198.135 113.256L201.754 120.132C202.508 121.565 202.324 123.312 201.287 124.556L198.426 127.989C198.144 128.327 197.92 128.71 197.762 129.121L191.825 144.65C191.611 145.21 191.274 145.714 190.84 146.126L182 154.5L170.357 164.687C170.12 164.895 169.859 165.074 169.579 165.22L161.07 169.678C160.07 170.201 158.896 170.278 157.836 169.89L144.96 165.169C144.655 165.057 144.364 164.908 144.094 164.725L129.468 154.817C129.157 154.607 128.878 154.354 128.638 154.066L119.225 142.77C119.075 142.591 118.942 142.398 118.825 142.194L111.239 128.917C111.08 128.64 110.889 128.383 110.669 128.151L102 119L96.0616 111.234C95.6921 110.751 95.2172 110.359 94.673 110.087ZM142 145.5C139.695 145.5 138.829 148.518 140.784 149.74L141.8 150.375C141.933 150.458 142.073 150.529 142.219 150.587L151.285 154.214C151.757 154.403 152.261 154.5 152.77 154.5H160.699C161.545 154.5 162.368 154.232 163.052 153.735L167.026 150.845C167.34 150.616 167.62 150.343 167.855 150.034L175.161 140.445C175.386 140.15 175.569 139.825 175.704 139.479L179.585 129.56C179.856 128.867 180.315 128.264 180.91 127.817L188 122.5L189.25 121.771C190.561 121.006 190.018 119 188.501 119C188.176 119 187.86 119.106 187.601 119.303L175.908 128.19C175.637 128.396 175.394 128.635 175.183 128.903L170 135.5L165.812 141.363C165.286 142.099 164.526 142.635 163.656 142.884L155.039 145.346C154.681 145.448 154.311 145.5 153.94 145.5H142ZM99.4097 105.673C99.1392 105.229 98.7845 104.841 98.3657 104.533L89.5 98H96.8331C98.1849 98 99.4452 98.6828 100.184 99.8151L105.558 108.057C105.85 108.504 106.228 108.888 106.67 109.187L116.63 115.913C117.2 116.298 117.662 116.823 117.969 117.439L119.792 121.084C120.238 121.975 120.238 123.025 119.792 123.916C118.739 126.022 115.838 126.284 114.425 124.4L113.263 122.851C113.088 122.618 112.888 122.404 112.667 122.214L106.483 116.914C106.163 116.64 105.888 116.317 105.669 115.957L99.4097 105.673Z" fill="#FAE8DC"/>
<path d="M142 145.5C139.695 145.5 138.829 148.518 140.784 149.74L141.8 150.375C141.933 150.458 142.073 150.529 142.219 150.587L151.285 154.214C151.757 154.403 152.261 154.5 152.77 154.5H160.699C161.545 154.5 162.368 154.232 163.052 153.735L167.026 150.845C167.34 150.616 167.62 150.343 167.855 150.034L175.161 140.445C175.386 140.15 175.569 139.825 175.704 139.479L179.585 129.56C179.856 128.867 180.315 128.264 180.91 127.817L188 122.5L189.25 121.771C190.561 121.006 190.018 119 188.501 119C188.176 119 187.86 119.106 187.601 119.303L175.908 128.19C175.637 128.396 175.394 128.635 175.183 128.903L170 135.5L165.812 141.363C165.286 142.099 164.526 142.635 163.656 142.884L155.039 145.346C154.681 145.448 154.311 145.5 153.94 145.5H142Z" fill="#F8E0D4"/>
<path d="M89.5 98L98.3657 104.533C98.7845 104.841 99.1392 105.229 99.4097 105.673L105.669 115.957C105.888 116.317 106.163 116.64 106.483 116.914L112.667 122.214C112.888 122.404 113.088 122.618 113.263 122.851L114.425 124.4C115.838 126.284 118.739 126.022 119.792 123.916C120.238 123.025 120.238 121.975 119.792 121.084L117.969 117.439C117.662 116.823 117.2 116.298 116.63 115.913L106.67 109.187C106.228 108.888 105.85 108.504 105.558 108.057L100.184 99.8151C99.4452 98.6828 98.1849 98 96.8331 98H89.5Z" fill="#F8E0D4"/>
<path d="M123 83.5C123.001 80 124 80 125 75C126 70 126 69.5 127.5 66C129 62.5 132 53.5 134 50C136 46.5 142.5 39 144 37.5C145.5 36 151.5 34.5 156 34.5C160.074 34.5 171.525 36.9588 173.656 37.4244C173.886 37.4745 174.11 37.5455 174.327 37.6359L180 40C180 40 184 42 185 45C185.631 46.8921 185.864 48.3864 185.95 49.232C186.002 49.7385 186.1 50.2426 186.21 50.7395C186.437 51.7593 186.68 53.7838 186 56.5C185.311 59.2561 183.673 62.7242 182.72 64.6148C182.269 65.5116 182.136 66.5443 182.195 67.5467C182.25 68.4805 182.241 69.8168 182 71.5C181.563 74.5575 179.219 81.4307 178.633 83.1197C178.545 83.3733 178.431 83.616 178.293 83.8462L174 91L169.5 98.5C169.5 98.5 167.534 102.552 165.5 104.5C163.021 106.876 158.042 108.426 156.48 108.869C156.161 108.96 155.833 109 155.501 109H149.25C148.436 109 147.642 108.752 146.973 108.289L141.5 104.5L134.285 98.728C134.096 98.5763 133.92 98.4077 133.761 98.2242L127.5 91C127.5 91 123 87 123 83.5Z" fill="#F3BC8D"/>
</svg>
