<svg width="257" height="339" viewBox="0 0 257 339" fill="none" xmlns="http://www.w3.org/2000/svg">
<path d="M99.7197 128.913L80.0014 142.604L65.5032 142.375L56.8466 152.24L45.7219 160.066L35.6995 161.408L34.0341 171.883L33.7267 191.38L33.3405 215.877L34.6118 230.399L37.367 245.945L35.6938 256.92L33.9733 270.894L32.2607 284.369L41.7359 286.018L59.2337 286.294L69.7324 286.46L71.7321 286.491L69.9294 273.961L69.166 258.948L69.4025 243.949L68.7066 192.932L72.607 230.998L73.2759 252.011L74.1181 262.026L73.9683 271.525L73.7949 282.523L73.7201 287.273L73.6452 292.022L69.1491 323.455L125.929 337.852L172.065 329.578L168.417 275.514L166.28 252.478L166.595 232.48L166.808 218.982L167.163 196.485L165.329 185.954L165.18 131.945L163.751 127.422L154.792 124.781L145.793 124.639L141.691 131.075L134.613 135.964L128.09 137.361L120.567 138.743L115.568 138.664L108.585 137.554L99.7197 128.913Z" fill="#FAE8DC"/>
<path d="M99.901 117.414L99.7197 128.913L108.585 137.554L115.568 138.664L120.567 138.743L128.09 137.361L134.613 135.964L141.691 131.075L145.793 124.639L141.967 113.577L140.101 105.047L138.078 106.515L134.968 113.467L129.874 119.387L124.311 123.3L115.757 126.666L109.797 124.071L105.314 123L99.901 117.414Z" fill="#6B4232"/>
<path d="M69.9294 273.961L71.7321 286.491L73.7201 287.273L73.7949 282.523L73.9683 271.525L74.1181 262.026L73.2759 252.011L72.607 230.998L68.7066 192.932L69.4025 243.949L69.166 258.948L69.9294 273.961Z" fill="#F5D5C8"/>
<path d="M97.5432 108.376L99.9719 112.915L99.901 117.414L105.314 123L109.797 124.071L115.757 126.666L124.311 123.3L129.874 119.387L134.968 113.467L138.078 106.515L140.101 105.047L142.187 99.5788L97.5432 108.376Z" fill="#4D2F23"/>
<path d="M105.551 44.4946L102.512 46.947L98.9574 50.3913L93.8476 57.3117C93.8476 57.3117 87.246 63.7084 88.1985 66.7238C89.1511 69.7392 87.6828 67.7158 87.0253 77.7066C86.3677 87.6975 86.844 89.2052 86.844 89.2052L86.7258 96.7043L96.5984 104.861C96.5984 104.861 99.9797 112.415 102.393 117.954C104.806 123.493 98.6488 133.397 98.6488 133.397L88.4609 145.238L79.2571 158.094L68.6559 164.428L60.0545 170.793L51.4294 178.658L42.3281 185.015L33.7819 187.881L28.2825 187.794L21.3307 184.684L17.4731 175.622L19.1936 161.648L23.4059 148.213L28.0866 136.785L36.7747 124.92L45.3762 118.555L52.525 109.167L56.8083 91.232L60.5443 76.289L67.3115 59.3936L72.5158 46.474C72.5158 46.474 81.1961 35.1095 85.2507 31.6729C89.3054 28.2364 97.8911 22.8711 97.8911 22.8711C97.8911 22.8711 102.454 18.9425 107.469 18.0215C112.484 17.1005 119.967 18.2185 119.967 18.2185C119.967 18.2185 127.45 19.3367 130.934 20.3917C134.418 21.4468 142.307 28.572 142.307 28.572L153.093 42.2437L157.918 53.3212L161.189 67.8745L164.874 87.9351L167.011 110.972L169.742 128.017L164.227 128.93L156.76 126.812L145.761 126.639L140.864 120.061C140.864 120.061 137.436 115.506 138.514 110.522C139.509 105.927 139.141 106.838 140.689 104.288C140.634 104.004 140.739 103.217 141.156 101.563C142.911 94.5897 144.797 92.6192 144.797 92.6192L144.979 81.1206L143.137 71.0904L139.771 62.5362L133.921 52.9428L128.509 47.3568L119.097 41.7077L113.097 41.6132L105.551 44.4946Z" fill="#2A1D18"/>
<path d="M100.717 33.9171L91.6554 37.7748L87.085 42.2033L83.4988 47.6474L80.9202 52.6074L78.8496 57.0753L76.7395 64.0429L75.1293 71.0184L73.5428 76.494L73.4797 80.4935L72.3774 86.977L71.2908 92.4605L70.1963 98.444L68.6177 103.42L67.0233 109.395L64.9369 114.863L61.8348 121.315L57.7407 127.251L53.6308 134.187L50.5366 140.139L48.4659 144.607L43.3483 152.027L39.2463 158.464L35.6364 165.408M91.5845 42.2742L88.5297 45.7265L85.4197 52.6783L83.349 57.1462L83.2386 64.1454L83.0731 74.6441L83.0022 79.1435L82.8603 88.1424L82.7263 96.6413L82.616 103.64L80.9822 112.116L77.8643 119.568L74.2938 124.012L69.7392 127.44M120.246 32.2248L128.214 34.3506L132.674 36.9213L139.126 40.0234L143.523 46.5935L146.936 52.148L150.793 61.2099L153.667 69.2562L156.017 78.7945L156.883 87.3092L159.185 99.847L159.059 107.846L159.957 114.361L159.783 125.36M120.317 27.7253L125.817 27.812L132.784 29.9221L138.236 33.0085L143.673 37.0947L149.077 43.1806L153.935 52.2583" stroke="#120D0A"/>
<path d="M91.6385 102.282L87.6942 98.7198L86.2259 96.6964L84.8286 90.1735L84.9231 84.1743L85.0571 75.6753L86.6831 67.7L88.2775 61.7244L90.8639 56.2645L97.4734 49.3678L104.543 44.9787L112.106 41.0974L119.605 41.2157L128.041 45.3492L133.477 49.4354L138.35 57.5132L142.7 67.083L144.55 76.6133L145.916 85.1359L145.821 91.1351L142.719 97.587L137.593 105.507L132.499 111.428L129.445 114.88L125.421 116.317L121.398 117.753L116.399 117.675L108.947 114.557L103.503 110.971L97.5511 107.876L91.6385 102.282Z" fill="#6B4232"/>
<path d="M228.902 54.9403L227.799 61.4237L228.213 66.9309L229.673 69.4542L236.657 70.5645L243.156 70.6669L244.179 69.1829L244.439 52.6849L245.518 47.7013L247.041 46.2252L249.096 42.7571L250.683 37.2814L252.262 32.3057L254.864 25.8459L256.466 19.3704L256.513 16.3708L255.013 16.3471L250.88 24.783L248.841 27.2512L248.38 24.7436L253.085 11.8161L253.14 8.31658L252.656 7.30882L251.156 7.28517L249.109 10.2533L248.038 14.737L245.983 18.205L243.936 21.1731L243.405 23.165L242.413 22.6493L245.03 15.1896L246.57 12.7136L247.633 8.72981L248.68 5.74595L249.219 3.25414L247.735 2.23062L246.719 3.21473L245.188 5.19084L243.633 8.66676L241.57 12.6347L240.515 16.1185L238.968 19.0945L238.429 21.5863L236.937 21.0627L237.492 17.5711L239.055 13.5952L240.61 10.1193L241.657 7.13542L241.689 5.13566L240.704 4.12002L237.658 7.07236L235.571 12.5401L234.532 15.0241L233.469 19.0078L231.89 23.9835L231.343 26.9753L230.772 31.4668L229.233 33.9429L227.733 33.9192L226.241 33.3957L226.273 31.3959L224.804 29.3725L224.336 27.3649L222.883 24.3416L221.415 22.3182L220.447 20.3027L218.947 20.279L218.915 22.2788L219.829 27.7939L220.266 31.8013L221.202 35.8165L224.592 42.8708L226.536 46.4019L227.989 49.4252L228.949 51.9407L228.902 54.9403Z" fill="#915038"/>
<path d="M173.75 127.58L179.82 123.175L186.374 119.778L194.968 113.913L202.514 111.031L207.069 107.603L211.781 94.1753L216.993 80.7558L219.143 71.2885L221.261 63.8209L233.759 64.018L243.734 65.6754L248.234 65.7464L247.926 85.244L245.206 99.2028L242.962 114.669L239.813 124.121L236.108 137.064L227.928 148.437L215.764 158.746L198.616 167.977L189.039 172.827L178.914 180.668L172.725 192.572L169.06 203.015L167.411 212.491L165.253 222.458L136.075 233.499L103.328 185.477L120.941 146.75L151.753 127.233L173.75 127.58Z" fill="#FAE8DC"/>
<path d="M16.8515 246.621L5.35522 246.44C3.14635 246.405 1.32748 248.168 1.29266 250.376L0.0630559 328.367C0.0282308 330.576 1.79064 332.394 3.9995 332.429L114.986 334.179C117.195 334.214 119.013 332.452 119.048 330.243L119.145 324.091L119.644 292.442L120.087 264.376L120.278 252.252C120.313 250.044 118.55 248.225 116.341 248.19L114.253 248.157L99.311 247.921L71.64 247.485L39.5417 246.979L16.8515 246.621Z" fill="#E3E1E1"/>
<g clip-path="url(#clip0_2008_2)">
<path d="M51.1106 303.662C50.7797 302.869 50.5577 301.88 50.516 301.012C50.4035 298.671 51.3913 296.89 53.1206 296.316C56.3673 295.928 53.6491 296.318 52.4728 294.157C51.792 292.668 52.0372 290.745 53.1257 289.036C53.888 287.839 55.2043 286.521 56.075 286.084C56.1748 286.034 56.3337 285.952 56.4281 285.903C56.6654 285.779 57.1617 285.613 57.4767 285.551C57.8256 285.483 58.4615 285.494 58.786 285.572C59.1585 285.663 59.5532 285.893 59.7659 286.144C59.9227 286.328 59.9404 286.366 59.9381 286.514C59.9359 286.657 59.9188 286.695 59.8118 286.793C59.7438 286.855 59.5605 286.973 59.4044 287.054C58.2526 287.651 57.4244 288.663 57.1193 289.846C56.9456 290.52 56.9412 291.414 57.1081 292.152C57.5427 294.073 59.1969 295.753 61.2587 296.365C61.7499 296.511 61.7916 296.512 61.9103 296.388C62.0224 296.271 62.0399 296.184 61.9803 296.036C61.9385 295.933 61.8661 295.894 61.5421 295.803C61.42 295.769 61.2143 295.705 61.0848 295.661L60.8494 295.582L61.0362 295.471C61.1389 295.41 61.3223 295.255 61.4437 295.126L61.6644 294.891L61.9262 295.188C62.2276 295.528 62.423 295.875 62.5527 296.3C62.6358 296.572 62.6428 296.644 62.636 297.134C62.6291 297.605 62.618 297.701 62.5443 297.911C62.2621 298.714 61.6574 299.24 60.9123 299.33C60.4565 299.385 60.0348 299.301 58.7988 298.909C56.7354 298.254 55.1641 298.557 53.9943 299.835C53.572 300.296 53.3973 300.556 52.3337 302.304C52.0698 302.738 51.7214 303.304 51.5595 303.562L51.265 304.032L51.1106 303.662Z" fill="#A8A8A8"/>
<path d="M59.7914 294.998C58.811 294.326 58.0393 293.301 57.7393 292.273C57.5478 291.617 57.5058 290.799 57.6321 290.187C57.8179 289.287 58.3806 288.455 59.1783 287.9L59.4906 287.683L59.6435 287.782C60.4219 288.283 60.9994 289.192 61.267 290.337C61.5217 291.426 61.6093 293.252 61.4386 293.906C61.3397 294.285 61.2143 294.516 60.987 294.741C60.7538 294.972 60.479 295.105 60.2019 295.122C60.0069 295.134 59.9759 295.125 59.7914 294.998Z" fill="#A8A8A8"/>
<path d="M62.0619 294.409C61.9867 294.383 61.9286 294.346 61.9327 294.327C61.9368 294.307 61.97 294.175 62.006 294.033C62.0601 293.82 62.0739 293.627 62.0833 292.942C62.1105 290.936 61.7746 289.42 61.073 288.386C60.9822 288.252 60.9081 288.12 60.9086 288.092C60.9095 288.034 61.1292 287.723 61.239 287.624C61.2789 287.588 61.46 287.467 61.6409 287.355C61.8221 287.243 62.0363 287.105 62.117 287.048L62.2635 286.944L62.368 287.104C62.5538 287.388 62.9028 288.071 63.0325 288.404C63.2777 289.034 63.4796 289.899 63.5818 290.762C63.6346 291.207 63.617 292.341 63.5509 292.761C63.4433 293.443 63.2551 293.887 62.9503 294.178C62.6754 294.441 62.379 294.518 62.0619 294.409Z" fill="#A8A8A8"/>
<path d="M60.2767 287.499L60.1013 287.35L60.2194 287.241C60.2844 287.182 60.3802 287.042 60.4324 286.932C60.5148 286.758 60.5256 286.698 60.5147 286.482C60.4996 286.185 60.4141 285.978 60.2025 285.726C59.5438 284.942 58.204 284.666 56.9289 285.052C56.799 285.091 56.6867 285.116 56.6793 285.108C56.6489 285.074 57.0395 284.531 57.273 284.282C58.0578 283.446 59.0505 283.035 60.1078 283.109C60.568 283.141 60.8075 283.209 61.1855 283.417C61.6861 283.691 62.0628 284.205 62.1569 284.741C62.2137 285.063 62.2262 285.908 62.177 286.09C62.1188 286.307 62.0078 286.408 61.4653 286.741C61.0413 287.001 60.6586 287.331 60.5028 287.571C60.4525 287.648 60.4514 287.648 60.2767 287.499Z" fill="#A8A8A8"/>
<path d="M54.7166 284.305C54.5708 284.124 54.4024 283.784 54.3176 283.5C54.2004 283.108 54.2017 282.537 54.3209 282.108C54.6446 280.942 55.6112 279.996 56.9844 279.5C57.647 279.26 58.4378 279.21 58.9793 279.373C63.4058 281.077 56.6607 286.639 54.7166 284.305Z" fill="#A8A8A8"/>
</g>
<defs>
<clipPath id="clip0_2008_2">
<rect width="133" height="24.8637" fill="white" transform="translate(50.8452 279.161) rotate(0.903254)"/>
</clipPath>
</defs>
</svg>
