<svg width="217" height="295" viewBox="0 0 257 340" fill="none" xmlns="http://www.w3.org/2000/svg">
<path d="M99.6571 130.269L79.9388 143.96L65.4406 143.731L56.784 153.596L45.6593 161.421L35.6369 162.764L33.9715 173.239L33.6641 192.736L33.2779 217.233L34.5492 231.755L37.3044 247.3L35.6312 258.275L33.9107 272.25L32.1981 285.725L41.6733 287.374L59.1711 287.65L69.6698 287.816L71.6695 287.847L69.8668 275.317L69.1034 260.303L69.3399 245.305L68.644 194.288L72.5444 232.354L73.2133 253.367L74.0555 263.382L73.9057 272.881L73.7323 283.879L73.6575 288.629L73.5826 293.378L69.0865 324.811L125.867 339.208L172.003 330.934L168.355 276.87L166.217 253.833L166.533 233.836L166.746 220.338L167.1 197.84L165.266 187.31L165.117 133.301L163.689 128.778L154.729 126.136L145.73 125.995L141.628 132.431L134.55 137.32L128.027 138.717L120.505 140.099L115.505 140.02L108.522 138.91L99.6571 130.269Z" fill="#8F589F"/>
<path d="M99.8384 118.77L99.6571 130.269L108.522 138.91L115.505 140.02L120.505 140.099L128.027 138.717L134.55 137.32L141.628 132.431L145.73 125.995L141.904 114.933L140.038 106.402L138.015 107.871L134.905 114.822L129.811 120.743L124.249 124.656L115.695 128.021L109.735 125.427L105.251 124.356L99.8384 118.77Z" fill="#FE9D6C"/>
<path d="M69.8668 275.317L71.6695 287.847L73.6575 288.629L73.7323 283.879L73.9057 272.881L74.0555 263.382L73.2133 253.367L72.5444 232.354L68.644 194.288L69.3399 245.305L69.1034 260.303L69.8668 275.317Z" fill="#7B468A"/>
<path d="M97.4806 109.732L99.9093 114.271L99.8384 118.77L105.251 124.356L109.735 125.427L115.695 128.021L124.249 124.656L129.811 120.743L134.905 114.822L138.015 107.871L140.038 106.402L142.125 100.935L97.4806 109.732Z" fill="#FA9561"/>
<path d="M105.489 45.8502L102.45 48.3026L98.8948 51.7469L93.7851 58.6673C93.7851 58.6673 87.1834 65.064 88.136 68.0794C89.0886 71.0948 87.6203 69.0714 86.9627 79.0622C86.3052 89.0531 86.7815 90.5608 86.7815 90.5608L86.6632 98.0599L96.5359 106.217C96.5359 106.217 99.9172 113.771 102.33 119.31C104.743 124.848 98.5863 134.752 98.5863 134.752L88.3983 146.593L79.1945 159.45L68.5934 165.783L59.992 172.149L51.3669 180.014L42.2656 186.371L33.7193 189.237L28.22 189.15L21.2682 186.04L17.4105 176.978L19.1311 163.003L23.3434 149.568L28.0241 138.14L36.7122 126.276L45.3136 119.911L52.4625 110.522L56.7458 92.5876L60.4818 77.6446L67.249 60.7492L72.4533 47.8296C72.4533 47.8296 81.1335 36.4651 85.1882 33.0286C89.2429 29.592 97.8285 24.2267 97.8285 24.2267C97.8285 24.2267 102.391 20.2981 107.406 19.3771C112.421 18.4561 119.905 19.5742 119.905 19.5742C119.905 19.5742 127.388 20.6923 130.872 21.7473C134.356 22.8024 142.244 29.9276 142.244 29.9276L153.03 43.5993L157.856 54.6768L161.127 69.2302L164.811 89.2907L166.948 112.327L169.68 129.372L164.165 130.286L156.697 128.168L145.699 127.994L140.802 121.416C140.802 121.416 137.373 116.862 138.452 111.878C139.447 107.283 139.079 108.193 140.627 105.644C140.572 105.36 140.677 104.573 141.093 102.919C142.849 95.9453 144.735 93.9748 144.735 93.9748L144.916 82.4763L143.074 72.446L139.708 63.8918L133.859 54.2984L128.446 48.7124L119.034 43.0634L113.035 42.9688L105.489 45.8502Z" fill="#705353"/>
<path d="M100.655 35.2727L91.5928 39.1303L87.0224 43.5588L83.4361 49.0029L80.8576 53.9629L78.7869 58.4308L76.6768 65.3984L75.0667 72.3739L73.4802 77.8496L73.4171 81.8491L72.3148 88.3325L71.2282 93.8161L70.1337 99.7995L68.5551 104.775L66.9607 110.751L64.8742 116.219L61.7721 122.671L57.678 128.607L53.5682 135.543L50.474 141.495L48.4033 145.963L43.2857 153.383L39.1837 159.819L35.5738 166.763M91.5218 43.6297L88.467 47.082L85.3571 54.0338L83.2864 58.5018L83.176 65.5009L83.0105 75.9996L82.9396 80.499L82.7977 89.4979L82.6637 97.9968L82.5533 104.996L80.9195 113.471L77.8017 120.923L74.2312 125.367L69.6766 128.796M120.184 33.5803L128.151 35.7062L132.611 38.2768L139.063 41.3789L143.46 47.949L146.873 53.5035L150.731 62.5655L153.604 70.6118L155.954 80.15L156.82 88.6647L159.123 101.203L158.997 109.202L159.894 115.717L159.721 126.715M120.255 29.0809L125.754 29.1676L132.722 31.2777L138.174 34.364L143.61 38.4502L149.015 44.5362L153.872 53.6139" stroke="#886053"/>
<path d="M91.5759 103.638L87.6316 100.075L86.1633 98.052L84.7659 91.5292L84.8605 85.5299L84.9945 77.031L86.6204 69.0556L88.2148 63.08L90.8012 57.6201L97.4108 50.7235L104.481 46.3344L112.043 42.4531L119.542 42.5713L127.978 46.7048L133.414 50.791L138.287 58.8688L142.637 68.4386L144.487 77.969L145.853 86.4915L145.758 92.4908L142.656 98.9427L137.531 106.863L132.437 112.783L129.382 116.236L125.359 117.672L121.336 119.109L116.336 119.03L108.885 115.912L103.44 112.326L97.4885 109.232L91.5759 103.638Z" fill="#FFA87D"/>
<path d="M228.839 56.296L227.737 62.7794L228.15 68.2866L229.611 70.81L236.594 71.9202L243.093 72.0226L244.117 70.5386L244.377 54.0406L245.455 49.057L246.979 47.5809L249.034 44.1128L250.62 38.6372L252.199 33.6614L254.801 27.2016L256.403 20.7261L256.451 17.7265L254.951 17.7028L250.817 26.1387L248.778 28.6069L248.318 26.0993L253.022 13.1719L253.077 9.67229L252.593 8.66453L251.093 8.64089L249.046 11.609L247.975 16.0927L245.92 19.5607L243.873 22.5288L243.342 24.5207L242.35 24.005L244.968 16.5453L246.507 14.0693L247.57 10.0855L248.617 7.10166L249.157 4.60986L247.672 3.58633L246.657 4.57045L245.125 6.54655L243.571 10.0225L241.508 13.9904L240.453 17.4742L238.906 20.4502L238.366 22.942L236.874 22.4185L237.429 18.9268L238.992 14.9509L240.547 11.475L241.594 8.49113L241.626 6.49138L240.642 5.47574L237.595 8.42807L235.508 13.8959L234.469 16.3798L233.406 20.3635L231.828 25.3393L231.28 28.331L230.709 32.8226L229.17 35.2986L227.67 35.275L226.179 34.7514L226.21 32.7516L224.742 30.7282L224.273 28.7206L222.821 25.6973L221.353 23.6739L220.384 21.6584L218.884 21.6348L218.853 23.6345L219.766 29.1496L220.203 33.157L221.14 37.1722L224.529 44.2265L226.474 47.7576L227.926 50.7809L228.887 53.2964L228.839 56.296Z" fill="#FFA87D"/>
<path d="M173.687 128.936L179.757 124.531L186.312 121.134L194.905 115.268L202.452 112.387L207.006 108.958L211.719 95.531L216.931 82.1115L219.08 72.6442L221.198 65.1766L233.697 65.3737L243.672 67.0312L248.171 67.1021L247.864 86.5997L245.143 100.559L242.899 116.025L239.75 125.477L236.046 138.42L227.865 149.792L215.701 160.102L198.554 169.333L188.976 174.182L178.851 182.024L172.663 193.928L168.998 204.371L167.348 213.846L165.191 223.813L136.013 234.855L103.266 186.833L120.879 148.105L151.69 128.589L173.687 128.936Z" fill="#8F589F"/>
<path d="M16.7889 247.977L5.29265 247.796C3.08379 247.761 1.26492 249.523 1.2301 251.732L0.000494853 329.723C-0.0343302 331.931 1.72808 333.75 3.93694 333.785L114.923 335.535C117.132 335.57 118.951 333.807 118.986 331.598L119.083 325.446L119.582 293.798L120.024 265.732L120.215 253.608C120.25 251.399 118.488 249.58 116.279 249.546L114.191 249.513L99.2484 249.277L71.5774 248.841L39.4791 248.335L16.7889 247.977Z" fill="#E3E1E1"/>
<g clip-path="url(#clip0_50_998)">
<path d="M51.0923 302.197C50.7599 301.495 50.5361 300.619 50.4929 299.851C50.3761 297.78 51.3607 296.206 53.0888 295.701C56.3348 295.363 53.6174 295.704 52.4372 293.789C51.7537 292.471 51.9954 290.769 53.0808 289.259C53.8409 288.201 55.1548 287.037 56.0246 286.652C56.1244 286.608 56.2831 286.536 56.3774 286.493C56.6145 286.383 57.1104 286.237 57.4253 286.183C57.7741 286.124 58.41 286.134 58.7346 286.204C59.1073 286.285 59.5023 286.49 59.7156 286.712C59.8727 286.875 59.8905 286.909 59.8884 287.04C59.8864 287.166 59.8694 287.2 59.7626 287.286C59.6947 287.341 59.5116 287.445 59.3557 287.516C58.205 288.042 57.3787 288.937 57.0757 289.983C56.9032 290.579 56.9005 291.37 57.0687 292.023C57.5068 293.724 59.164 295.213 61.2269 295.759C61.7183 295.889 61.76 295.89 61.8784 295.781C61.9903 295.677 62.0077 295.6 61.9478 295.469C61.9059 295.378 61.8334 295.344 61.5092 295.262C61.3871 295.232 61.1812 295.175 61.0517 295.136L60.8161 295.065L61.0027 294.968C61.1053 294.914 61.2884 294.777 61.4095 294.663L61.6298 294.456L61.8922 294.718C62.1942 295.02 62.3902 295.327 62.5207 295.704C62.6042 295.944 62.6114 296.008 62.6055 296.442C62.5995 296.859 62.5885 296.943 62.5152 297.129C62.2345 297.839 61.6307 298.303 60.8858 298.382C60.4302 298.43 60.0083 298.354 58.7716 298.005C56.7071 297.422 55.1364 297.688 53.9689 298.816C53.5475 299.223 53.3733 299.453 52.3128 300.998C52.0498 301.381 51.7024 301.881 51.541 302.11L51.2474 302.525L51.0923 302.197Z" fill="#A8A8A8"/>
<path d="M59.7571 294.547C58.7755 293.95 58.002 293.042 57.7001 292.132C57.5075 291.551 57.464 290.827 57.5892 290.285C57.7733 289.49 58.3345 288.754 59.1311 288.265L59.443 288.074L59.5961 288.161C60.3754 288.606 60.9545 289.412 61.2242 290.425C61.4808 291.389 61.5718 293.005 61.4023 293.583C61.304 293.918 61.1791 294.123 60.9522 294.321C60.7194 294.525 60.4449 294.642 60.1678 294.657C59.9729 294.667 59.9418 294.659 59.7571 294.547Z" fill="#A8A8A8"/>
<path d="M62.0266 294.03C61.9513 294.007 61.8932 293.974 61.8972 293.956C61.9013 293.939 61.9343 293.822 61.9699 293.696C62.0237 293.509 62.0372 293.337 62.0453 292.731C62.0689 290.956 61.7302 289.615 61.0268 288.698C60.9357 288.58 60.8614 288.462 60.8618 288.438C60.8626 288.387 61.0818 288.112 61.1914 288.025C61.2312 287.993 61.412 287.886 61.5928 287.787C61.7738 287.688 61.9877 287.566 62.0683 287.516L62.2146 287.424L62.3194 287.566C62.5057 287.818 62.856 288.423 62.9862 288.718C63.2326 289.275 63.436 290.042 63.5398 290.805C63.5934 291.199 63.5779 292.202 63.5125 292.574C63.4062 293.177 63.2188 293.57 62.9145 293.827C62.6402 294.059 62.3438 294.126 62.0266 294.03Z" fill="#A8A8A8"/>
<path d="M60.2288 287.912L60.0531 287.779L60.171 287.684C60.2359 287.631 60.3315 287.508 60.3835 287.41C60.4655 287.256 60.4762 287.204 60.4649 287.013C60.4493 286.75 60.3634 286.566 60.1513 286.343C59.4913 285.648 58.1509 285.401 56.8766 285.74C56.7468 285.775 56.6345 285.797 56.6271 285.79C56.5967 285.76 56.9863 285.28 57.2193 285.06C58.0026 284.322 58.9945 283.96 60.0519 284.027C60.5122 284.056 60.7517 284.117 61.1301 284.301C61.6312 284.545 62.0088 285 62.104 285.475C62.1613 285.76 62.1753 286.508 62.1265 286.669C62.0686 286.861 61.9578 286.95 61.416 287.243C60.9925 287.473 60.6104 287.764 60.4549 287.976C60.4049 288.044 60.4037 288.044 60.2288 287.912Z" fill="#A8A8A8"/>
<path d="M54.6631 285.076C54.5169 284.915 54.3479 284.614 54.2627 284.363C54.1447 284.015 54.145 283.51 54.2634 283.131C54.585 282.1 55.5498 281.264 56.9221 280.828C57.5842 280.617 58.3749 280.574 58.9167 280.72C63.3462 282.235 56.6114 287.144 54.6631 285.076Z" fill="#A8A8A8"/>
</g>
<defs>
<clipPath id="clip0_50_998">
<rect width="133" height="22" fill="white" transform="translate(50.7825 280.517) rotate(0.903254)"/>
</clipPath>
</defs>
</svg>
